<svg width="24" height="25" viewBox="0 0 24 25" fill="none" xmlns="http://www.w3.org/2000/svg">
<path d="M0 2.58295H7.1999C7.35429 1.98696 7.66723 1.44293 8.10609 1.00761C8.73166 0.384507 9.59916 0 10.5526 0C11.5072 0 12.3736 0.384507 12.9992 1.00444C13.6248 1.62436 14.0128 2.48284 14.0128 3.42868C14.0128 4.37349 13.6248 5.23304 12.9992 5.85297C12.3703 6.47182 11.505 6.8574 10.5526 6.8574C9.60237 6.8574 8.73492 6.47182 8.10929 5.85297C7.67611 5.42266 7.35578 4.87944 7.1999 4.27441H0V2.58295ZM19.323 12.4324C19.3233 12.2041 19.2782 11.9781 19.1902 11.7671C19.1023 11.5562 18.9731 11.3646 18.8103 11.2032C18.6474 11.0418 18.454 10.9138 18.2411 10.8266C18.0282 10.7395 17.8001 10.6948 17.5698 10.6951C17.3395 10.6949 17.1114 10.7396 16.8985 10.8268C16.6857 10.914 16.4922 11.0419 16.3293 11.2032C16.0133 11.5142 15.8166 11.952 15.8166 12.4324C15.8166 12.9127 16.0133 13.3505 16.3282 13.6626C16.6432 13.9747 17.085 14.1696 17.5698 14.1696C18.0546 14.1696 18.4964 13.9747 18.8113 13.6626C19.1392 13.3356 19.3232 12.8933 19.323 12.4324ZM20.0163 10.0081C20.4564 10.4439 20.7698 10.9892 20.9236 11.5866H23.999V13.278H20.9236C20.7695 13.8753 20.4562 14.4206 20.0163 14.8566C19.3875 15.4755 18.5222 15.861 17.5698 15.861C16.6195 15.861 15.7521 15.4755 15.1265 14.8566C14.4987 14.2335 14.1096 13.374 14.1096 12.4324C14.1096 11.4886 14.4987 10.6312 15.1233 10.0113C15.7488 9.38815 16.6163 9.00364 17.5698 9.00364C18.5243 9.00364 19.3907 9.38815 20.0163 10.0081ZM12.8186 13.278H0V11.5866H12.8186V13.278ZM3.30219 20.7255C3.45657 20.1295 3.76951 19.5855 4.20838 19.1502C4.83395 18.5271 5.70145 18.1426 6.6549 18.1426C7.60943 18.1426 8.47584 18.5271 9.10147 19.147C9.72705 19.7669 10.1151 20.6254 10.1151 21.5713C10.1151 22.516 9.72705 23.3756 9.10147 23.9956C8.47264 24.6144 7.60731 25 6.6549 25C5.70466 25 4.83721 24.6144 4.21158 23.9956C3.7784 23.5652 3.45807 23.022 3.30219 22.417H0V20.7255H3.30219ZM5.41336 20.3421C5.0984 20.6531 4.90172 21.0909 4.90172 21.5713C4.90172 22.0516 5.0984 22.4894 5.41336 22.8015C5.72831 23.1136 6.17012 23.3085 6.6549 23.3085C7.13973 23.3085 7.58154 23.1136 7.89644 22.8015C8.22432 22.4745 8.40828 22.0322 8.40813 21.5713C8.40846 21.343 8.36334 21.117 8.27535 20.9061C8.18736 20.6951 8.05823 20.5035 7.89536 20.3421C7.73249 20.1807 7.53908 20.0528 7.32622 19.9656C7.11336 19.8784 6.88523 19.8337 6.6549 19.834C6.18947 19.8338 5.74296 20.0165 5.41336 20.3421ZM11.4061 20.7255H23.9979V22.417H11.4061V20.7255ZM9.31106 2.19951C8.99611 2.51053 8.79943 2.94831 8.79943 3.42868C8.79943 3.90909 8.99611 4.34683 9.31106 4.65891C9.62602 4.971 10.0678 5.16594 10.5526 5.16594C11.0374 5.16594 11.4792 4.971 11.7942 4.65891C12.122 4.33193 12.306 3.88964 12.3058 3.42868C12.3062 3.20045 12.261 2.97439 12.1731 2.76347C12.0851 2.55255 11.9559 2.36091 11.7931 2.19953C11.6302 2.03815 11.4368 1.9102 11.2239 1.82302C11.0111 1.73583 10.7829 1.69113 10.5526 1.69146C10.0872 1.69119 9.64067 1.87391 9.31106 2.19951ZM15.3038 2.58295H24V4.27441H15.3038V2.58295Z" fill="#0070F2"/>
</svg>
