<svg width="9" height="18" viewBox="0 0 9 18" fill="none" xmlns="http://www.w3.org/2000/svg">
<path d="M4.40295 17.1936L4.40295 15.308M4.40295 15.308L7.23138 15.308L7.23138 12.0082L4.40295 12.0082M4.40295 15.308L4.40295 12.0082M4.40295 8.13324C4.88652 8.13648 5.36596 8.04403 5.81365 7.86122C6.26135 7.67841 6.66846 7.40885 7.01154 7.06805C7.35463 6.72725 7.62692 6.32196 7.81272 5.8755C7.99853 5.42904 8.09419 4.95024 8.09419 4.46665C8.09419 3.98307 7.99853 3.50427 7.81272 3.05781C7.62692 2.61135 7.35463 2.20605 7.01154 1.86526C6.66846 1.52446 6.26135 1.2549 5.81365 1.07209C5.36596 0.889277 4.88652 0.79683 4.40295 0.80007C3.44167 0.816778 2.52541 1.21037 1.85152 1.89609C1.17762 2.5818 0.800006 3.50476 0.800006 4.46618C0.800006 5.42761 1.17762 6.35057 1.85152 7.03628C2.52541 7.72199 3.44167 8.11559 4.40295 8.1323L4.40295 8.13324ZM4.40295 8.13324L4.40295 12.0082" stroke="#0070F2" stroke-width="1.6" stroke-linecap="round" stroke-linejoin="round"/>
</svg>
