<svg width="13" height="3" viewBox="0 0 13 3" fill="none" xmlns="http://www.w3.org/2000/svg">
<path d="M6.13314 2.13332C6.50133 2.13332 6.7998 1.83484 6.7998 1.46665C6.7998 1.09846 6.50133 0.799988 6.13314 0.799988C5.76495 0.799988 5.46647 1.09846 5.46647 1.46665C5.46647 1.83484 5.76495 2.13332 6.13314 2.13332Z" stroke="#5B738B" stroke-width="1.6" stroke-linecap="round" stroke-linejoin="round"/>
<path d="M10.7998 2.13332C11.168 2.13332 11.4665 1.83484 11.4665 1.46665C11.4665 1.09846 11.168 0.799988 10.7998 0.799988C10.4316 0.799988 10.1331 1.09846 10.1331 1.46665C10.1331 1.83484 10.4316 2.13332 10.7998 2.13332Z" stroke="#5B738B" stroke-width="1.6" stroke-linecap="round" stroke-linejoin="round"/>
<path d="M1.46647 2.13332C1.83466 2.13332 2.13314 1.83484 2.13314 1.46665C2.13314 1.09846 1.83466 0.799988 1.46647 0.799988C1.09828 0.799988 0.799805 1.09846 0.799805 1.46665C0.799805 1.83484 1.09828 2.13332 1.46647 2.13332Z" stroke="#5B738B" stroke-width="1.6" stroke-linecap="round" stroke-linejoin="round"/>
</svg>
