<svg width="20" height="17" viewBox="0 0 20 17" fill="none" xmlns="http://www.w3.org/2000/svg">
<path d="M9.50649 5.88561V9.21894M9.50649 12.5523H9.51482M8.08149 1.60227L1.02315 13.3856C0.877627 13.6376 0.800626 13.9234 0.799811 14.2144C0.798996 14.5054 0.874396 14.7915 1.01851 15.0444C1.16262 15.2972 1.37043 15.5079 1.62124 15.6555C1.87206 15.8031 2.15715 15.8824 2.44815 15.8856H16.5648C16.8558 15.8824 17.1409 15.8031 17.3917 15.6555C17.6425 15.5079 17.8504 15.2972 17.9945 15.0444C18.1386 14.7915 18.214 14.5054 18.2132 14.2144C18.2123 13.9234 18.1353 13.6376 17.9898 13.3856L10.9315 1.60227C10.7829 1.35736 10.5738 1.15487 10.3242 1.01434C10.0745 0.873814 9.79293 0.799988 9.50649 0.799988C9.22004 0.799988 8.93843 0.873814 8.68882 1.01434C8.43922 1.15487 8.23005 1.35736 8.08149 1.60227Z" stroke="#1D2D3E" stroke-width="1.6" stroke-linecap="round" stroke-linejoin="round"/>
</svg>
